<svg width="37" height="37" viewBox="0 0 37 37" fill="none" xmlns="http://www.w3.org/2000/svg">
<path d="M15.6195 18.9862L13.4008 16.7633C13.1587 16.5084 12.8672 16.3054 12.5442 16.1667C12.2211 16.028 11.8733 15.9565 11.5217 15.9565C11.1702 15.9565 10.8224 16.028 10.4993 16.1667C10.1763 16.3054 9.8848 16.5084 9.64271 16.7633C9.37554 17.0023 9.16191 17.2951 9.01587 17.6224C8.86983 17.9498 8.79474 18.3043 8.7954 18.6628C8.79303 19.0128 8.86477 19.3594 9.00588 19.6797C9.14699 20 9.35427 20.2868 9.61413 20.5213L13.6136 24.5167C13.8618 24.7961 14.1662 25.0197 14.507 25.1728C14.8478 25.3259 15.2172 25.4051 15.5908 25.4051C15.9644 25.4051 16.3339 25.3259 16.6747 25.1728C17.0155 25.0197 17.32 24.7961 17.5681 24.5167L26.0501 16.0388C26.2909 15.818 26.4683 15.5368 26.564 15.2245C26.6598 14.9122 26.6703 14.5799 26.5946 14.2621C26.4487 13.6059 26.2669 12.9581 26.0501 12.3217C25.808 12.0668 25.5166 11.8638 25.1936 11.7251C24.8706 11.5864 24.5226 11.5148 24.1711 11.5148C23.8195 11.5148 23.4717 11.5864 23.1487 11.7251C22.8257 11.8638 22.5343 12.0668 22.2922 12.3217L15.6195 18.9862ZM17.9202 36.024C13.4556 36.0012 9.15851 34.3211 5.86248 31.3095C2.56644 28.298 0.506298 24.1696 0.0816835 19.7252C-0.342931 15.2807 0.898217 10.837 3.56439 7.25584C6.23056 3.67466 10.1317 1.2113 14.5112 0.34354C18.8908 -0.524223 23.4366 0.265458 27.2668 2.55942C31.0971 4.85339 33.9389 8.48813 35.2411 12.7587C36.5432 17.0292 36.213 21.6312 34.3143 25.672C32.4156 29.7129 29.0839 32.9046 24.9653 34.6281C22.7293 35.5681 20.3252 36.0431 17.8997 36.024H17.9202Z" fill="#353D3A"/>
</svg>
