<svg width="26" height="24" viewBox="0 0 26 24" fill="none" xmlns="http://www.w3.org/2000/svg">
<path d="M11.1729 23.1008C10.9152 22.8641 10.7073 22.5784 10.5615 22.2604C10.4156 21.9424 10.3346 21.5984 10.3234 21.2487C10.3245 20.8922 10.4008 20.54 10.5472 20.2149C10.6935 19.8899 10.9067 19.5993 11.1729 19.3622L15.9255 14.6058H2.64347C2.2998 14.6088 1.95906 14.5426 1.64152 14.4111C1.32398 14.2796 1.03623 14.0856 0.795302 13.8405C0.543975 13.6007 0.343903 13.3124 0.20721 12.9931C0.070517 12.6738 0 12.33 0 11.9827C0 11.6353 0.070517 11.2916 0.20721 10.9722C0.343903 10.6529 0.543975 10.3646 0.795302 10.1249C1.03299 9.87368 1.31955 9.67381 1.63741 9.53758C1.95527 9.40135 2.29765 9.33165 2.64347 9.33277H15.9255L11.1729 4.57635C10.9062 4.34796 10.6921 4.06445 10.5455 3.74539C10.3988 3.42632 10.3231 3.07927 10.3234 2.72811C10.3038 2.18732 10.4513 1.65362 10.7459 1.19966C11.0404 0.745697 11.4677 0.393538 11.9696 0.191118C12.4715 -0.0113025 13.0235 -0.0541521 13.5506 0.0684076C14.0777 0.190967 14.5542 0.472969 14.9153 0.876042L24.1986 10.1249C24.4779 10.3678 24.6978 10.6715 24.8414 11.0126C25.0895 11.6263 25.0895 12.3123 24.8414 12.9259C24.6926 13.2752 24.4738 13.5904 24.1986 13.852L14.9076 23.1505C14.6728 23.4145 14.3854 23.6265 14.0638 23.7728C13.7422 23.9191 13.3936 23.9965 13.0403 24C12.6849 23.9817 12.3368 23.8927 12.0161 23.7383C11.6955 23.5839 11.4088 23.3672 11.1729 23.1008Z" fill="#353D3A"/>
</svg>
