<svg width="31" height="25" viewBox="0 0 31 25" fill="none" xmlns="http://www.w3.org/2000/svg">
<path d="M28.062 24.3248C27.6856 24.329 27.3123 24.2559 26.9652 24.1102C26.6181 23.9644 26.3045 23.7491 26.0438 23.4774C25.7751 23.2232 25.5613 22.9166 25.4156 22.5765C25.2698 22.2365 25.1953 21.8702 25.1965 21.5002V16.8171C25.2106 16.3294 25.125 15.844 24.9448 15.3906C24.7647 14.9372 24.4938 14.5254 24.1488 14.1804C23.8038 13.8354 23.3921 13.5645 22.9387 13.3844C22.4853 13.2042 21.9999 13.1186 21.5122 13.1328H9.64058L12.3097 15.8346C12.5774 16.0794 12.7891 16.3792 12.9304 16.7133C13.0717 17.0475 13.1392 17.4082 13.1284 17.7709C13.1233 18.1423 13.0438 18.509 12.8947 18.8493C12.7457 19.1896 12.53 19.4966 12.2605 19.7522C12.0051 20.0201 11.698 20.2334 11.3578 20.3791C11.0176 20.5248 10.6513 20.5999 10.2812 20.5999C9.91111 20.5999 9.54485 20.5248 9.20463 20.3791C8.86441 20.2334 8.55733 20.0201 8.30195 19.7522L0.851513 12.314C0.566094 12.0609 0.344451 11.7439 0.204683 11.3889C0.0719178 11.0539 0.00251364 10.6971 0 10.3368C0.00196662 9.97772 0.0713994 9.62223 0.204683 9.28881C0.344975 8.93291 0.56649 8.61473 0.851513 8.35957L8.35922 0.84769C8.6146 0.579804 8.92168 0.366559 9.2619 0.220849C9.60212 0.0751382 9.96838 0 10.3385 0C10.7086 0 11.0749 0.0751382 11.4151 0.220849C11.7553 0.366559 12.0625 0.579804 12.3179 0.84769C12.5857 1.10307 12.799 1.41018 12.9447 1.7504C13.0904 2.09062 13.1655 2.45687 13.1655 2.82698C13.1655 3.19709 13.0904 3.56335 12.9447 3.90357C12.799 4.24379 12.5857 4.55087 12.3179 4.80625L9.64878 7.51218H21.5204C22.7468 7.50019 23.9633 7.7325 25.099 8.19556C26.2347 8.65862 27.2669 9.34317 28.1353 10.2093C29.0037 11.0754 29.6909 12.1057 30.1569 13.2402C30.623 14.3747 30.8585 15.5906 30.8498 16.8171V21.5002C30.8528 21.8678 30.7819 22.2323 30.6413 22.572C30.5006 22.9116 30.293 23.2196 30.031 23.4774C29.7803 23.7485 29.4756 23.964 29.1364 24.1099C28.7973 24.2559 28.4313 24.3291 28.062 24.3248Z" fill="#353D3A"/>
</svg>
