<svg width="33" height="30" viewBox="0 0 33 30" fill="none" xmlns="http://www.w3.org/2000/svg">
<path d="M16.4442 23.5485C18.0235 23.5458 19.5531 23.0001 20.7725 22.0043C21.9919 21.0085 22.8255 19.6241 23.1317 18.0869C23.4378 16.5498 23.1974 14.9549 22.4514 13.5738C21.7054 12.1927 20.4999 11.1109 19.0403 10.5125C17.5806 9.91412 15.957 9.83621 14.446 10.292C12.9349 10.7478 11.6298 11.7091 10.7529 13.0123C9.87596 14.3154 9.48149 15.8799 9.6366 17.4392C9.79171 18.9984 10.4869 20.4562 11.6036 21.5641C12.2311 22.2053 12.9843 22.7122 13.8168 23.0535C14.6494 23.3948 15.5435 23.5632 16.4442 23.5485ZM4.5954 30C3.99181 30.0004 3.39406 29.8827 2.83634 29.6537C2.27863 29.4248 1.77187 29.089 1.34507 28.6655C0.91827 28.2421 0.57979 27.7394 0.34899 27.1861C0.118189 26.6328 -0.000389193 26.0398 3.89456e-06 25.441V8.08285C-0.000782481 7.4838 0.117525 6.89046 0.34815 6.33682C0.578775 5.78317 0.917172 5.28007 1.34401 4.85633C1.77085 4.43259 2.27774 4.09653 2.83565 3.86737C3.39356 3.63821 3.99156 3.52047 4.5954 3.52086H8.7453L10.614 1.48309C11.0458 0.999465 11.5824 0.619174 12.1836 0.370773C12.7627 0.127917 13.3847 0.00187525 14.0134 0H18.8719C19.5016 0.00156072 20.1247 0.127607 20.7047 0.370773C21.3059 0.619174 21.8425 0.999465 22.2744 1.48309L24.143 3.52086H28.29C28.8941 3.52008 29.4923 3.63756 30.0506 3.86654C30.6088 4.09553 31.1161 4.43151 31.5432 4.85528C31.9704 5.27906 32.3091 5.78229 32.5399 6.33613C32.7707 6.88997 32.8891 7.48355 32.8883 8.08285V25.435C32.8887 26.0341 32.77 26.6274 32.539 27.1809C32.308 27.7344 31.9693 28.2372 31.5422 28.6607C31.115 29.0842 30.608 29.4199 30.0499 29.6487C29.4919 29.8775 28.8938 29.9948 28.29 29.9941L4.5954 30Z" fill="#353D3A"/>
</svg>
