<svg width="247" height="281" viewBox="0 0 247 281" fill="none" xmlns="http://www.w3.org/2000/svg">
<path d="M196.968 223.812C193.279 223.812 189.837 222.091 187.379 219.386C182.953 214.223 183.936 206.355 189.1 202.175C206.556 187.915 221.063 171.688 222.046 167.262C223.275 161.607 228.193 157.427 234.094 157.427C234.831 157.427 235.815 157.427 236.552 157.673C239.749 158.411 242.453 160.132 244.42 163.082C246.141 165.787 246.879 169.229 246.141 172.425C242.699 188.898 213.687 213.977 204.835 221.107C202.623 222.828 199.918 223.812 196.968 223.812Z" fill="#3B3B3B"/>
<path d="M235.077 164.803C232.373 164.312 229.914 166.033 229.176 168.491C227.455 177.097 206.557 197.012 193.771 207.585C191.559 209.306 191.313 212.502 193.034 214.469C194.017 215.698 195.492 216.19 196.722 216.19C197.705 216.19 198.935 215.944 199.918 214.961C203.606 212.01 235.569 185.211 238.765 170.458C239.503 168 237.782 165.541 235.077 164.803Z" fill="#999999"/>
<path d="M183.691 172.425L181.478 161.115L80.6718 185.702L78.459 198.242L78.2131 197.996C66.4114 207.831 62.9692 273.478 78.2131 271.756C80.1801 271.511 81.9011 271.511 83.3764 271.265C88.5396 270.773 92.7194 266.593 92.7194 261.184C92.7194 259.217 92.9652 257.004 93.2111 254.3C103.783 259.463 117.06 263.643 131.321 262.659C131.075 267.331 130.583 271.019 129.846 271.756C127.879 274.215 146.319 278.149 149.515 274.215C150.744 272.74 152.957 265.61 154.678 257.742C164.021 255.037 171.889 251.595 178.282 248.399C177.052 255.529 176.069 262.413 176.561 264.38C178.036 268.314 191.313 264.38 191.313 264.38C205.819 242.744 211.474 192.341 183.691 172.425Z" fill="#999999"/>
<path d="M113.372 218.895C148.777 218.895 180.002 210.535 196.476 189.882C193.525 183.981 189.345 178.818 183.69 174.884L181.478 163.574L80.6714 188.161L78.4585 200.7L78.2127 200.454C75.5081 202.667 73.2953 207.83 71.5742 214.223C84.3594 217.419 98.3739 218.895 113.372 218.895Z" fill="#999999"/>
<path d="M205.081 201.192C202.131 187.915 195.984 177.343 186.887 170.459L186.395 179.556L189.346 183.736C194.017 190.128 196.476 197.258 197.705 203.159C199.672 212.502 199.672 222.337 198.443 231.434C197.951 235.122 197.214 238.564 196.476 242.006C194.509 249.874 191.804 256.513 188.608 261.676C185.166 262.659 181.232 263.151 179.757 262.905C179.757 260.938 180.249 256.513 181.232 251.349V250.858C184.183 249.383 186.887 247.661 188.116 247.17C189.838 246.186 191.559 244.465 191.067 242.498C190.329 240.531 188.362 238.81 186.149 240.285L185.658 240.531L185.166 240.777C184.674 241.023 183.937 241.515 183.199 242.006C180.494 243.482 177.052 245.449 174.84 246.432C170.414 248.645 165.005 250.858 159.104 252.825C159.841 246.678 159.596 240.777 157.875 236.351C157.137 234.385 154.924 233.647 152.957 234.385C150.99 235.122 150.253 237.335 150.99 239.302C152.711 243.236 152.22 249.628 151.236 255.529C150.744 258.48 150.253 261.184 149.515 263.643C148.286 268.069 147.302 271.265 146.565 272.494C144.598 273.478 137.222 272.494 133.779 271.265C134.025 270.035 134.271 268.56 134.517 266.593C134.517 266.102 134.517 265.61 134.763 265.118C135.009 263.397 135.009 261.43 135.255 259.217C135.5 254.054 135.746 247.416 135.992 238.073C135.992 236.106 134.517 234.385 132.304 234.385C130.337 234.385 128.616 236.106 128.616 238.073C128.37 245.449 128.124 253.562 127.879 259.955C116.814 260.201 106.242 257.004 97.3908 253.071C98.1284 248.891 99.6036 244.465 101.325 239.548C102.062 237.581 101.079 235.614 99.1119 234.876C97.1449 234.139 95.178 235.122 94.4404 237.089C92.7193 241.515 91.49 245.94 90.5065 249.874C89.7689 252.579 89.2771 255.283 89.0313 257.742C88.7854 259.463 88.7854 260.938 88.7854 262.414C88.7854 265.856 86.3267 268.56 82.8845 268.806C81.4093 268.806 79.6883 269.052 77.7213 269.298C76.492 269.298 75.2626 266.839 74.7709 265.856C72.8039 261.184 71.8204 254.3 71.5746 246.432C71.0828 228.238 75.2626 206.355 80.4259 201.93C81.9011 200.7 82.1469 198.242 80.9176 196.767C79.6882 195.291 77.2296 195.046 75.7544 196.275C75.5085 196.521 75.2626 196.767 75.0167 197.012C64.1985 207.831 61.0022 252.333 67.8865 268.56C70.837 275.445 75.0167 276.674 77.4754 276.674H78.4589C80.4259 276.428 81.9011 276.428 83.6222 276.182C90.7524 275.69 96.1615 269.79 96.1615 262.414C96.1615 261.922 96.1615 261.43 96.1615 260.938C105.013 264.626 115.585 267.577 126.895 267.577H127.141C126.895 269.298 126.895 270.527 126.649 271.019C125.666 272.74 125.666 275.199 128.124 276.92C130.337 278.641 137.222 280.608 143.368 280.608C147.302 280.608 150.744 279.87 152.465 277.412C153.695 275.69 156.153 269.298 157.875 261.676C163.53 259.955 168.939 257.742 173.364 255.775C172.627 260.938 172.381 264.872 173.118 266.593C174.348 269.79 177.544 270.773 181.478 270.773C185.166 270.773 189.346 269.79 192.542 268.806C193.28 268.56 194.017 268.069 194.509 267.331C203.852 252.333 210.49 225.533 205.081 201.192Z" fill="#3B3B3B"/>
<path d="M117.306 50.7202C117.306 50.7202 164.267 12.6105 188.608 4.49681C219.588 -5.82968 200.902 105.057 200.902 105.057L161.808 107.27L117.306 50.7202Z" fill="#999999"/>
<path d="M162.054 110.958C160.825 110.958 159.841 110.466 159.104 109.483L114.602 52.933C113.372 51.4578 113.618 48.9991 115.093 47.7697C117.06 46.2945 163.038 9.16831 187.625 1.05464C194.017 -1.15818 198.197 1.05464 200.656 3.26746C218.604 18.7572 206.065 96.9435 204.59 106.041C204.344 107.762 202.868 108.991 201.147 108.991L162.054 110.958ZM122.469 51.2119L163.529 103.582L197.705 101.861C202.868 69.6521 206.557 18.2655 195.738 8.92245C194.755 7.93897 193.034 7.20136 189.837 8.18484C169.922 14.8233 133.042 43.0982 122.469 51.2119Z" fill="#3B3B3B"/>
<path d="M136.484 55.1458C136.484 55.1458 166.972 30.559 182.707 25.3957C202.623 18.7572 190.575 90.5509 190.575 90.5509L165.251 92.0262L136.484 55.1458Z" fill="white"/>
<path d="M165.25 95.4683C164.021 95.4683 163.037 94.9766 162.3 93.9931L133.533 57.3587C132.304 55.8835 132.55 53.4248 134.025 52.1954C135.254 51.212 165.25 27.1168 181.232 21.7077C185.903 20.2325 189.1 21.7077 190.821 23.4288C202.868 33.7553 195.492 81.4538 193.771 91.0427C193.525 92.7638 192.05 93.9931 190.329 93.9931L165.25 95.4683ZM141.647 55.6376L166.971 87.8464L187.378 86.8629C190.821 64.9806 192.542 34.247 186.395 29.0838C185.903 28.592 185.412 28.3462 183.936 28.8379C171.643 32.7718 149.515 49.4909 141.647 55.6376Z" fill="#3B3B3B"/>
<path d="M104.029 50.7203C104.029 50.7203 57.0683 12.6106 32.7273 4.49693C1.7478 -5.82956 20.4338 105.057 20.4338 105.057L59.527 107.27L104.029 50.7203Z" fill="#999999"/>
<path d="M59.5269 110.958L20.4338 108.745C18.7127 108.745 17.2375 107.27 16.9916 105.795C15.5164 96.9435 2.97708 18.5114 20.9255 3.02162C23.3842 0.808798 27.8098 -1.15815 33.9566 0.808799C58.5434 8.92247 104.521 46.0487 106.488 47.5239C107.963 48.7532 108.209 50.966 106.98 52.6871L62.4773 109.237C61.7397 110.466 60.5104 110.958 59.5269 110.958ZM23.6301 101.615L57.8058 103.336L98.8659 50.966C88.5394 43.0982 51.6591 14.8233 31.4979 7.93899C28.3016 6.95552 26.5805 7.69313 25.597 8.6766C14.7788 18.0196 18.4668 69.4062 23.6301 101.615Z" fill="#3B3B3B"/>
<path d="M85.0973 55.146C85.0973 55.146 54.6096 30.5591 38.874 25.3958C18.9586 18.7574 31.0062 90.5511 31.0062 90.5511L56.3307 92.0263L85.0973 55.146Z" fill="white"/>
<path d="M56.3307 95.4685C56.0848 95.4685 56.0848 95.4685 56.3307 95.4685L31.0062 93.9933C29.2851 93.9933 27.8099 92.518 27.564 91.0428C25.8429 81.4539 18.4669 33.7554 30.5145 23.4289C32.4814 21.9537 35.6777 20.2326 40.1033 21.7078C56.3307 27.1169 86.0808 51.2121 87.3102 52.1955C88.7854 53.4249 89.0312 55.6377 87.8019 57.3588L59.0353 93.9933C58.5435 94.9767 57.3142 95.4685 56.3307 95.4685ZM34.2025 86.8631L54.6096 87.8465L79.9341 55.6377C72.0663 49.491 49.9381 32.7719 37.8905 28.5921C36.4153 28.1004 35.6777 28.3463 35.4318 28.838C29.0392 34.2471 30.7603 64.9807 34.2025 86.8631Z" fill="#3B3B3B"/>
<path d="M15.0244 135.299C15.0244 185.456 58.0515 204.142 110.913 204.142C163.775 204.142 206.802 185.456 206.802 135.299C206.802 85.1418 187.87 22.1993 110.913 22.1993C33.9563 22.1993 15.0244 85.1418 15.0244 135.299Z" fill="#999999"/>
<path d="M110.913 191.849C59.7725 191.849 17.9748 174.392 15.2703 127.923C15.2703 130.382 15.0244 132.84 15.0244 135.299C15.0244 185.456 58.0515 204.142 110.913 204.142C163.775 204.142 206.802 185.456 206.802 135.299C206.802 132.84 206.802 130.382 206.556 127.923C203.852 174.392 162.054 191.849 110.913 191.849Z" fill="#999999"/>
<path opacity="0.8" d="M110.913 49.2449C179.511 49.2449 202.131 99.4022 206.064 145.871C206.556 142.429 206.802 138.987 206.802 135.299C206.802 85.1418 187.624 22.1993 110.913 22.1993C33.9563 22.1993 15.0244 85.1418 15.0244 135.299C15.0244 138.987 15.2703 142.429 15.762 145.871C19.6959 99.4022 42.3159 49.2449 110.913 49.2449Z" fill="#AEAEAE"/>
<path d="M96.1614 22.9369V62.03C96.1614 66.4557 92.4734 69.8978 88.2936 69.8978C83.8679 69.8978 80.4258 66.2098 80.4258 62.03V26.1332C85.0973 24.658 90.5064 23.6745 96.1614 22.9369Z" fill="white"/>
<path d="M118.781 22.4452V69.4062C118.781 73.8318 115.339 77.274 110.913 77.274C106.488 77.274 103.045 73.5859 103.045 69.4062V22.4452C105.504 22.1993 108.209 22.1993 110.913 22.1993C113.618 22.1993 116.322 22.1993 118.781 22.4452Z" fill="white"/>
<path d="M141.647 26.1332V62.03C141.647 66.4557 138.205 69.8978 133.779 69.8978C129.353 69.8978 125.911 66.2098 125.911 62.03V22.9369C131.32 23.6745 136.729 24.658 141.647 26.1332Z" fill="white"/>
<path d="M110.914 144.642C78.7047 144.642 50.6757 161.115 36.6611 185.21C53.6261 200.7 80.6717 206.601 110.914 206.601C141.155 206.601 168.201 200.7 185.166 185.21C171.151 161.115 143.122 144.642 110.914 144.642Z" fill="white"/>
<path d="M43.0534 176.113C40.8406 178.818 39.1195 181.522 37.3984 184.473C55.101 198.487 81.409 204.142 111.159 204.142C140.909 204.142 167.217 198.241 184.92 184.473C183.199 181.522 181.232 178.818 179.265 176.113C161.562 187.177 137.467 191.849 110.913 191.849C84.3594 191.849 60.2642 187.177 43.0534 176.113Z" fill="#AEAEAE"/>
<path d="M110.913 207.83C46.7415 207.83 11.3364 182.014 11.3364 135.299C11.3364 100.14 20.9253 18.5114 110.913 18.5114C200.901 18.5114 210.49 100.14 210.49 135.299C210.49 182.014 175.085 207.83 110.913 207.83ZM110.913 25.8874C27.8096 25.8874 18.7125 102.353 18.7125 135.299C18.7125 192.095 76.4917 200.454 110.913 200.454C145.335 200.454 203.114 192.095 203.114 135.299C203.114 102.353 194.017 25.8874 110.913 25.8874Z" fill="#3B3B3B"/>
<path d="M110.913 152.51C101.57 152.51 93.9482 157.427 93.9482 163.328C93.9482 169.229 101.57 180.539 110.913 180.539C120.256 180.539 127.878 169.475 127.878 163.328C127.878 157.427 120.256 152.51 110.913 152.51Z" fill="#AEAEAE"/>
<path d="M110.913 148.822C99.3574 148.822 90.2603 155.214 90.2603 163.328C90.2603 170.212 96.6528 180.047 105.504 183.244C107.225 183.981 108.946 184.227 110.913 184.227C112.143 184.227 113.618 183.981 114.847 183.735C124.436 181.277 131.566 170.704 131.566 163.328C131.566 155.214 122.469 148.822 110.913 148.822ZM112.143 176.605C111.651 176.605 111.405 176.605 110.913 176.605C110.176 176.605 109.192 176.605 108.455 176.113C102.554 174.392 97.6363 166.77 97.6363 163.082C97.6363 159.64 103.045 155.952 110.913 155.952C118.781 155.952 124.19 159.64 124.19 163.082C124.19 167.262 118.535 175.622 112.143 176.605Z" fill="#3B3B3B"/>
<path d="M150.006 148.822C154.08 148.822 157.383 145.519 157.383 141.446C157.383 137.372 154.08 134.07 150.006 134.07C145.933 134.07 142.63 137.372 142.63 141.446C142.63 145.519 145.933 148.822 150.006 148.822Z" fill="#3B3B3B"/>
<path d="M71.8204 148.822C75.8941 148.822 79.1965 145.519 79.1965 141.446C79.1965 137.372 75.8941 134.07 71.8204 134.07C67.7467 134.07 64.4443 137.372 64.4443 141.446C64.4443 145.519 67.7467 148.822 71.8204 148.822Z" fill="#3B3B3B"/>
<path d="M163.529 153.739C163.529 153.739 186.887 147.592 218.112 150.297L163.529 153.739Z" fill="#999999"/>
<path d="M163.529 157.427C161.808 157.427 160.333 156.443 160.087 154.722C159.595 152.755 160.825 150.788 162.792 150.297C163.775 150.051 187.133 143.904 218.85 146.609C220.817 146.855 222.292 148.576 222.292 150.543C222.046 152.509 220.325 153.985 218.358 153.985C188.116 151.28 165.25 157.181 165.004 157.427C164.021 157.427 163.775 157.427 163.529 157.427Z" fill="#3B3B3B"/>
<path d="M163.529 171.441C163.529 171.441 194.017 171.195 212.949 173.654L163.529 171.441Z" fill="#999999"/>
<path d="M212.703 177.096C212.457 177.096 212.457 177.096 212.211 177.096C194.017 174.638 163.775 175.129 163.529 175.129C161.562 175.129 159.841 173.408 159.841 171.441C159.841 169.474 161.562 167.753 163.529 167.753C164.758 167.753 194.508 167.507 213.44 169.966C215.407 170.212 216.882 172.179 216.637 174.146C216.145 175.867 214.67 177.096 212.703 177.096Z" fill="#3B3B3B"/>
<path d="M161.07 187.177C161.07 187.177 191.312 191.356 205.327 196.028L161.07 187.177Z" fill="#999999"/>
<path d="M205.327 199.716C204.835 199.716 204.589 199.716 204.098 199.47C190.329 195.045 160.825 190.865 160.333 190.865C158.366 190.619 156.891 188.652 157.137 186.685C157.383 184.718 159.349 183.243 161.316 183.489C162.546 183.735 191.804 187.914 206.065 192.34C208.032 193.078 209.015 195.045 208.523 197.012C208.277 198.733 206.802 199.716 205.327 199.716Z" fill="#3B3B3B"/>
<path d="M58.2977 153.739C58.2977 153.739 34.9402 147.592 3.71484 150.297L58.2977 153.739Z" fill="#999999"/>
<path d="M58.2976 157.427C58.0518 157.427 57.56 157.427 57.3142 157.181C57.0683 157.181 34.2025 151.035 3.96062 153.739C1.99366 153.985 0.026713 152.51 0.026713 150.297C-0.219156 148.33 1.25606 146.363 3.46888 146.363C34.9401 143.658 58.5435 149.805 59.527 150.051C61.4939 150.543 62.7233 152.51 62.2315 154.477C61.4939 156.444 60.0187 157.427 58.2976 157.427Z" fill="#3B3B3B"/>
<path d="M58.2976 171.442C58.2976 171.442 27.8098 171.196 8.87793 173.654L58.2976 171.442Z" fill="#999999"/>
<path d="M9.12353 177.097C7.40245 177.097 5.68137 175.867 5.4355 173.9C5.18963 171.933 6.66484 169.966 8.63179 169.721C27.5637 167.262 57.3138 167.508 58.5432 167.508C60.5101 167.508 62.2312 169.229 62.2312 171.196C62.2312 173.163 60.5101 174.884 58.5432 174.884C58.2973 174.884 28.0554 174.638 9.86114 176.851C9.3694 177.097 9.12353 177.097 9.12353 177.097Z" fill="#3B3B3B"/>
<path d="M60.7564 187.177C60.7564 187.177 30.5145 191.357 16.5 196.028L60.7564 187.177Z" fill="#999999"/>
<path d="M16.4998 199.717C15.0246 199.717 13.5494 198.733 13.0577 197.258C12.3201 195.291 13.5494 193.324 15.5164 192.586C29.7768 187.915 59.0352 183.735 60.2645 183.735C62.2314 183.489 64.1984 184.964 64.4443 186.931C64.6901 188.898 63.2149 190.865 61.248 191.111C61.0021 191.111 31.252 195.291 17.4833 199.717C17.2374 199.471 16.9916 199.717 16.4998 199.717Z" fill="#3B3B3B"/>
<path d="M128.124 194.062C126.157 194.799 124.19 195.291 121.978 195.291C117.06 195.291 112.881 193.078 109.93 189.636C106.98 193.078 102.8 195.291 97.8825 195.291C95.6697 195.291 93.7028 194.799 91.7358 194.062C89.7688 193.324 89.0312 191.111 89.7689 189.144C90.5065 187.177 92.7193 186.44 94.6862 187.177C95.6697 187.669 96.899 187.915 97.8825 187.915C101.325 187.915 104.029 185.948 105.504 182.998C105.996 182.014 106.242 180.785 106.242 179.555C106.242 178.08 107.226 176.851 108.455 176.113C109.192 176.359 110.176 176.605 110.914 176.605H112.143C113.126 177.343 113.864 178.326 113.864 179.801C113.864 181.277 114.356 182.506 114.847 183.735C116.323 186.44 119.027 188.161 122.224 188.161C123.453 188.161 124.436 187.915 125.42 187.423C127.387 186.686 129.354 187.423 130.337 189.39C130.829 191.111 130.091 193.324 128.124 194.062Z" fill="#3B3B3B"/>
</svg>
