<svg width="32" height="29" viewBox="0 0 32 29" fill="none" xmlns="http://www.w3.org/2000/svg">
<path d="M9.5886 15.0061C9.84989 15.0108 10.1094 14.9626 10.3516 14.8644C10.5938 14.7663 10.8137 14.6203 10.9981 14.4351C11.1875 14.2575 11.3377 14.0424 11.4392 13.8034C11.5406 13.5644 11.5909 13.3069 11.5871 13.0473C11.5833 12.5184 11.3716 12.0122 10.9976 11.6383C10.6236 11.2643 10.1175 11.0525 9.5886 11.0487C9.32889 11.044 9.07101 11.094 8.8319 11.1955C8.59279 11.297 8.37778 11.4477 8.20076 11.6378C8.01626 11.8227 7.87063 12.0427 7.77256 12.2848C7.67448 12.5268 7.62591 12.7861 7.6297 13.0473C7.62826 13.3049 7.67798 13.5603 7.77591 13.7986C7.87384 14.0369 8.01805 14.2534 8.20023 14.4356C8.38241 14.6178 8.59898 14.762 8.83729 14.86C9.07559 14.9579 9.33096 15.0076 9.5886 15.0061ZM15.8988 15.0061C16.1565 15.0071 16.4117 14.9571 16.65 14.859C16.8883 14.761 17.1049 14.6168 17.2873 14.4348C17.4696 14.2527 17.6142 14.0364 17.7127 13.7983C17.8112 13.5602 17.8617 13.305 17.8612 13.0473C17.8705 12.5228 17.6717 12.0161 17.3083 11.6378C17.1262 11.4514 16.9086 11.3032 16.6684 11.2021C16.4282 11.1009 16.1703 11.0488 15.9097 11.0488C15.649 11.0488 15.391 11.1009 15.1508 11.2021C14.9106 11.3032 14.6931 11.4514 14.511 11.6378C14.3253 11.822 14.1788 12.0418 14.08 12.284C13.9813 12.5262 13.9324 12.7858 13.9363 13.0473C13.9308 13.3039 13.9769 13.5589 14.0719 13.7973C14.1669 14.0357 14.3088 14.2526 14.4893 14.4351C14.671 14.6238 14.8905 14.7721 15.1333 14.8705C15.3761 14.9689 15.637 15.0151 15.8988 15.0061ZM22.209 15.0061C22.4667 15.0076 22.722 14.9579 22.9603 14.86C23.1986 14.762 23.4151 14.6178 23.5973 14.4356C23.7795 14.2534 23.9237 14.0369 24.0216 13.7986C24.1196 13.5603 24.1693 13.3049 24.1678 13.0473C24.1716 12.7861 24.1231 12.5268 24.025 12.2848C23.9269 12.0427 23.7814 11.8227 23.5969 11.6378C23.4198 11.4477 23.2047 11.297 22.9656 11.1955C22.7265 11.094 22.4687 11.044 22.209 11.0487C21.6801 11.0525 21.174 11.2643 20.8 11.6383C20.426 12.0122 20.2142 12.5184 20.2104 13.0473C20.2066 13.3069 20.257 13.5644 20.3585 13.8034C20.4599 14.0424 20.6101 14.2575 20.7995 14.4351C20.9826 14.619 21.2008 14.7642 21.441 14.8623C21.6813 14.9604 21.9387 15.0093 22.1982 15.0061H22.209ZM0.000387856 26.1629V4.99146C-0.00786196 4.33374 0.115571 3.68103 0.363474 3.07175C0.611378 2.46248 0.978705 1.90898 1.44382 1.44387C1.90894 0.978749 2.46248 0.611422 3.07175 0.363518C3.68103 0.115615 4.33367 -0.00786208 4.99139 0.000387728H26.8061C27.4639 -0.00786208 28.1166 0.115615 28.7259 0.363518C29.3351 0.611422 29.8886 0.978749 30.3537 1.44387C30.8188 1.90898 31.1862 2.46248 31.4341 3.07175C31.682 3.68103 31.8055 4.33374 31.7972 4.99146V21.067C31.805 21.7244 31.6811 22.3767 31.433 22.9856C31.1849 23.5944 30.8175 24.1475 30.3525 24.6122C29.8874 25.077 29.334 25.444 28.725 25.6916C28.116 25.9393 27.4636 26.0627 26.8061 26.0544H6.06124L4.25419 27.8615C3.91326 28.2167 3.47373 28.4616 2.99234 28.5647C2.51095 28.6678 2.00974 28.6245 1.55323 28.4401C1.09672 28.2558 0.705897 27.939 0.431062 27.5306C0.156227 27.1221 0.0100064 26.6407 0.0112407 26.1484L0.000387856 26.1629Z" fill="#353D3A"/>
</svg>
