<svg width="30" height="29" viewBox="0 0 30 29" fill="none" xmlns="http://www.w3.org/2000/svg">
<path d="M26.0949 10.5984L18.4168 2.88242L20.0269 1.23442C20.3927 0.851035 20.8313 0.544426 21.3171 0.332528C21.8028 0.120629 22.3259 0.00769347 22.8558 0.000314622C23.4098 -0.00655973 23.9593 0.0992822 24.4711 0.311437C24.9829 0.523592 25.4463 0.837628 25.8329 1.23442L27.815 3.22038C28.228 3.57968 28.5501 4.03147 28.7554 4.53892C28.9606 5.04637 29.043 5.59512 28.9959 6.14046C28.9312 7.21642 28.4714 8.23058 27.7049 8.9884L26.0949 10.5984ZM2.61263 28.9847C2.26827 28.9914 1.92622 28.9275 1.60751 28.7969C1.28881 28.6663 1.00024 28.4717 0.75962 28.2253C0.515883 27.9906 0.322773 27.7084 0.192164 27.3963C0.0615556 27.0841 -0.00378828 26.7486 0.000169624 26.4102V22.3699C-0.0030448 22.0367 0.0602066 21.7063 0.186231 21.3978C0.317448 21.0888 0.508431 20.8088 0.748217 20.5738L16.2524 5.1076L23.9305 12.7477L8.49837 28.2519C8.2407 28.4904 7.94229 28.6807 7.61739 28.8138C7.30214 28.9393 6.96563 29.0025 6.62636 28.9999L2.61263 28.9847Z" fill="#353D3A"/>
</svg>
