<svg width="37" height="35" viewBox="0 0 37 35" fill="none" xmlns="http://www.w3.org/2000/svg">
<g clip-path="url(#clip0_10_370)">
<path d="M18.0127 29.2524L10.2965 33.8639C9.7441 34.1917 9.10673 34.3477 8.46536 34.3122C7.8992 34.2772 7.35704 34.0709 6.9107 33.7209C6.43797 33.4024 6.08933 32.9309 5.92351 32.3856C5.73569 31.7981 5.70449 31.1718 5.83293 30.5686L7.90267 21.9846L1.04972 16.0855C0.568401 15.7197 0.230836 15.1965 0.0959389 14.6071C-0.0280734 14.04 -0.0280734 13.4527 0.0959389 12.8856C0.263932 12.3374 0.597016 11.8544 1.04972 11.5026C1.53649 11.1072 2.13973 10.8827 2.76656 10.8636L11.6987 10.0672L15.2276 1.83607C15.4602 1.26566 15.8632 0.780973 16.3816 0.448312C16.8716 0.155016 17.4321 0.00012207 18.0031 0.00012207C18.5742 0.00012207 19.1345 0.155016 19.6245 0.448312C20.143 0.780973 20.5461 1.26566 20.7787 1.83607L24.3076 10.1101L33.2397 10.8636C33.8696 10.8841 34.4743 11.1159 34.9566 11.5217C35.4098 11.893 35.742 12.3911 35.9103 12.9524C36.0337 13.5109 36.0255 14.0905 35.8865 14.6453C35.7401 15.2244 35.4044 15.738 34.9327 16.1046L28.1132 21.9846L30.1829 30.5686C30.3113 31.1718 30.28 31.7981 30.0922 32.3856C29.9264 32.9309 29.5779 33.4024 29.1051 33.7209C28.6588 34.0709 28.1166 34.2772 27.5505 34.3122C26.9091 34.3477 26.2716 34.1917 25.7192 33.8639L18.0127 29.2524Z" fill="#353D3A"/>
</g>
<defs>
<clipPath id="clip0_10_370">
<rect width="36.0242" height="34.3169" fill="white"/>
</clipPath>
</defs>
</svg>
