<svg width="30" height="32" viewBox="0 0 30 32" fill="none" xmlns="http://www.w3.org/2000/svg">
<path d="M5.78639 31.9999C5.02528 32.0043 4.27087 31.859 3.56684 31.5724C2.86281 31.2858 2.22315 30.8636 1.68496 30.3303C1.14677 29.797 0.720679 29.1631 0.431467 28.4654C0.142255 27.7678 -0.00434953 27.0201 9.82516e-05 26.2659V12.5642C-0.00330314 11.6733 0.209362 10.7947 0.620197 10.0023C1.02875 9.20063 1.62315 8.50625 2.35478 7.97614L11.5307 1.1377C12.0306 0.784128 12.5796 0.504402 13.1606 0.307293C14.352 -0.102431 15.6479 -0.102431 16.8393 0.307293C17.4203 0.504402 17.9694 0.784128 18.4693 1.1377L27.6451 7.97614C28.3923 8.49516 28.996 9.19188 29.4007 10.0023C29.7972 10.799 30.0024 11.6758 29.9999 12.5642V26.2659C30.0044 27.0201 29.8576 27.7678 29.5684 28.4654C29.2792 29.1631 28.8532 29.797 28.315 30.3303C27.7768 30.8636 27.1372 31.2858 26.4332 31.5724C25.7291 31.859 24.9747 32.0043 24.2136 31.9999H18.8841V18.2981H11.1159V31.9999H5.78639Z" fill="#353D3A"/>
</svg>
