<svg viewBox="0 0 40 34" xmlns="http://www.w3.org/2000/svg">
<path d="M16.4795 32.2398L13.6631 29.6813C10.3503 26.6779 7.19922 23.5008 4.22308 20.1635C1.40664 16.9923 -0.000212563 13.615 0.00251654 10.0317C-0.0279184 8.70278 0.217993 7.382 0.724653 6.15304C1.23131 4.92409 1.98768 3.81373 2.94586 2.89236C3.88687 1.95027 5.00895 1.20852 6.2444 0.711807C7.47984 0.215096 8.80307 -0.0262621 10.1343 0.00226342C11.8169 0.0227157 13.4719 0.433267 14.9689 1.20168C16.7644 2.16041 18.3011 3.53974 19.4474 5.22168C20.5927 3.53887 22.1296 2.15933 23.9259 1.20168C25.4226 0.432423 27.0777 0.021821 28.7605 0.00226342C30.0917 -0.0260254 31.4149 0.215459 32.6503 0.712157C33.8857 1.20886 35.0078 1.95046 35.9489 2.89236C36.9063 3.81434 37.6622 4.92479 38.1688 6.15359C38.6754 7.3824 38.9217 8.70291 38.8923 10.0317C38.8923 13.716 37.3994 17.1697 34.4138 20.3927C31.4282 23.6158 28.3838 26.6779 25.2809 29.5789L22.4153 32.1866C22.0267 32.5778 21.5642 32.8878 21.0547 33.0987C20.5452 33.3095 19.9988 33.417 19.4474 33.4147C18.3428 33.4249 17.2778 33.0034 16.4795 32.2398Z"/>
</svg>
