<svg width="37" height="37" viewBox="0 0 37 37" fill="none" xmlns="http://www.w3.org/2000/svg">
<path d="M12.4305 20.8406H23.4507C23.8203 20.8427 24.1861 20.7664 24.5241 20.6168C24.8621 20.4673 25.1646 20.2477 25.4116 19.9728C25.9328 19.4546 26.2272 18.7509 26.2303 18.016C26.2303 17.6447 26.1571 17.2771 26.0148 16.9341C25.8726 16.5912 25.6642 16.2796 25.4015 16.0172C25.1388 15.7549 24.8269 15.5469 24.4837 15.4052C24.1405 15.2635 23.7728 15.1908 23.4015 15.1914H12.3814C12.0137 15.189 11.6495 15.2631 11.312 15.409C10.9744 15.5548 10.6708 15.7693 10.4206 16.0388C10.1584 16.297 9.95021 16.6048 9.80812 16.9442C9.66602 17.2837 9.59284 17.648 9.59284 18.016C9.59284 18.384 9.66602 18.7483 9.80812 19.0877C9.95021 19.4272 10.1584 19.735 10.4206 19.9932C10.6781 20.2666 10.99 20.4832 11.3361 20.6291C11.6823 20.7751 12.055 20.8471 12.4305 20.8406ZM17.9202 36.024C13.4556 36.0012 9.15851 34.3211 5.86248 31.3095C2.56644 28.298 0.506298 24.1696 0.0816835 19.7252C-0.342931 15.2807 0.898217 10.837 3.56439 7.25584C6.23056 3.67466 10.1318 1.2113 14.5113 0.34354C18.8909 -0.524223 23.4366 0.265458 27.2668 2.55942C31.0971 4.85339 33.9389 8.48813 35.2411 12.7587C36.5432 17.0292 36.213 21.6312 34.3143 25.672C32.4156 29.7129 29.0839 32.9046 24.9653 34.6281C22.7356 35.5654 20.3388 36.0403 17.9202 36.024Z" fill="#353D3A"/>
</svg>
