<svg width="29" height="29" viewBox="0 0 29 29" fill="none" xmlns="http://www.w3.org/2000/svg">
<g clip-path="url(#clip0_10_391)">
<path d="M4.99693 13.0005C4.33941 13.0039 3.6877 12.8768 3.07962 12.6266C2.47154 12.3764 1.91911 12.0081 1.45433 11.543C0.98955 11.0779 0.621638 10.5252 0.371894 9.91695C0.122151 9.30869 -0.00442751 8.65694 -0.000587668 7.99941V4.9973C-0.00885423 4.33873 0.114744 3.68516 0.362965 3.0751C0.611186 2.46504 0.978975 1.91082 1.44469 1.4451C1.91041 0.979385 2.46461 0.611574 3.07467 0.363353C3.68473 0.115132 4.33836 -0.00848808 4.99693 -0.000221521H7.99907C8.65659 -0.00406136 9.3083 0.122562 9.91656 0.372305C10.5248 0.622048 11.0775 0.98996 11.5426 1.45474C12.0078 1.91952 12.376 2.47193 12.6262 3.08001C12.8764 3.68809 13.0035 4.33977 13.0001 4.9973V7.99941C12.9982 9.3252 12.4708 10.5961 11.5333 11.5336C10.5958 12.4711 9.32486 12.9986 7.99907 13.0005H4.99693ZM4.99693 28.9998C4.33836 29.008 3.68473 28.8844 3.07467 28.6362C2.46461 28.388 1.91041 28.0202 1.44469 27.5545C0.978975 27.0887 0.611186 26.5345 0.362965 25.9245C0.114744 25.3144 -0.00885423 24.6609 -0.000587668 24.0023V21.0001C-0.00442751 20.3426 0.122151 19.6909 0.371894 19.0826C0.621638 18.4743 0.98955 17.9217 1.45433 17.4565C1.91911 16.9914 2.47154 16.6231 3.07962 16.3729C3.6877 16.1228 4.33941 15.9957 4.99693 15.999H7.99907C9.32486 16.0009 10.5958 16.5285 11.5333 17.4659C12.4708 18.4034 12.9982 19.6744 13.0001 21.0001V23.9987C13.0035 24.6562 12.8764 25.3078 12.6262 25.9159C12.376 26.524 12.0078 27.0764 11.5426 27.5412C11.0775 28.006 10.5248 28.3739 9.91656 28.6237C9.3083 28.8734 8.65659 29 7.99907 28.9962L4.99693 28.9998ZM20.9998 13.0005C19.674 12.9986 18.4031 12.4711 17.4656 11.5336C16.5281 10.5961 16.0006 9.3252 15.9986 7.99941V4.9973C15.9953 4.33977 16.1224 3.68809 16.3725 3.08001C16.6227 2.47193 16.9911 1.91952 17.4562 1.45474C17.9213 0.98996 18.4739 0.622048 19.0822 0.372305C19.6905 0.122562 20.3423 -0.00406136 20.9998 -0.000221521H24.0019C24.6605 -0.00848808 25.314 0.115132 25.9241 0.363353C26.5342 0.611574 27.0884 0.979385 27.5541 1.4451C28.0198 1.91082 28.3876 2.46504 28.6358 3.0751C28.884 3.68516 29.0077 4.33873 28.9994 4.9973V7.99941C29.0033 8.65694 28.8766 9.30869 28.6269 9.91695C28.3771 10.5252 28.0092 11.0779 27.5444 11.543C27.0797 12.0081 26.5272 12.3764 25.9191 12.6266C25.3111 12.8768 24.6594 13.0039 24.0019 13.0005H20.9998ZM20.9998 28.9998C20.3423 29.0036 19.6905 28.877 19.0822 28.6273C18.4739 28.3775 17.9213 28.0096 17.4562 27.5448C16.9911 27.08 16.6227 26.5276 16.3725 25.9196C16.1224 25.3115 15.9953 24.6598 15.9986 24.0023V21.0001C16.0006 19.6744 16.5281 18.4034 17.4656 17.4659C18.4031 16.5285 19.674 16.0009 20.9998 15.999H24.0019C24.6594 15.9957 25.3111 16.1228 25.9191 16.3729C26.5272 16.6231 27.0797 16.9914 27.5444 17.4565C28.0092 17.9217 28.3771 18.4743 28.6269 19.0826C28.8766 19.6909 29.0033 20.3426 28.9994 21.0001V23.9987C29.0077 24.6572 28.884 25.3108 28.6358 25.9209C28.3876 26.5309 28.0198 27.0851 27.5541 27.5509C27.0884 28.0166 26.5342 28.3844 25.9241 28.6326C25.314 28.8808 24.6605 29.0044 24.0019 28.9962L20.9998 28.9998Z" fill="#353D3A"/>
</g>
<defs>
<clipPath id="clip0_10_391">
<rect width="29" height="29" fill="white"/>
</clipPath>
</defs>
</svg>
