<svg width="29" height="29" viewBox="0 0 29 29" fill="none" xmlns="http://www.w3.org/2000/svg">
<path d="M7.66579 22.0752H21.1392C21.3884 22.0935 21.6371 22.0337 21.8509 21.9042C22.0646 21.7747 22.2327 21.5818 22.3318 21.3524C22.444 21.1405 22.4953 20.9017 22.48 20.6625C22.4647 20.4233 22.3834 20.193 22.2451 19.9971L18.6779 15.0458C18.5503 14.8748 18.3838 14.7368 18.192 14.6431C18.0003 14.5494 17.789 14.5029 17.5757 14.5073C17.3642 14.4983 17.1538 14.5429 16.9642 14.6371C16.7747 14.7312 16.6121 14.8718 16.4915 15.0458L13.3544 19.2852L11.251 16.5059C11.1248 16.3368 10.9613 16.199 10.7733 16.1031C10.5853 16.0072 10.3778 15.9559 10.1668 15.9529C9.95406 15.9458 9.74294 15.9928 9.55331 16.0895C9.36368 16.1862 9.20174 16.3295 9.08258 16.5059L6.58518 19.9971C6.44671 20.1924 6.36382 20.4216 6.34536 20.6603C6.3269 20.899 6.37355 21.1382 6.48036 21.3524C6.57501 21.5836 6.74117 21.7784 6.95444 21.9085C7.16772 22.0385 7.41694 22.0969 7.66579 22.0752ZM4.99139 28.8155C4.33394 28.8228 3.68164 28.6987 3.07281 28.4504C2.46399 28.2021 1.91086 27.8348 1.44594 27.3699C0.981023 26.9049 0.613671 26.3518 0.365417 25.743C0.117163 25.1342 -0.00695895 24.4819 0.000301036 23.8245V4.99137C-0.00695895 4.33392 0.117163 3.68164 0.365417 3.07282C0.613671 2.46399 0.981023 1.9109 1.44594 1.44599C1.91086 0.981068 2.46399 0.613693 3.07281 0.365439C3.68164 0.117185 4.33394 -0.006959 4.99139 0.000300987H23.8137C24.4711 -0.006959 25.1233 0.117185 25.7321 0.365439C26.341 0.613693 26.8941 0.981068 27.359 1.44599C27.8239 1.9109 28.1913 2.46399 28.4395 3.07282C28.6878 3.68164 28.8119 4.33392 28.8047 4.99137V23.8136C28.8119 24.4711 28.6878 25.1233 28.4395 25.7322C28.1913 26.341 27.8239 26.8941 27.359 27.359C26.8941 27.8239 26.341 28.1913 25.7321 28.4395C25.1233 28.6878 24.4711 28.8119 23.8137 28.8047L4.99139 28.8155Z" fill="#353D3A"/>
</svg>
