<svg width="37" height="37" viewBox="0 0 37 37" fill="none" xmlns="http://www.w3.org/2000/svg">
<path d="M11.0182 24.9179C11.2177 25.1225 11.4561 25.2851 11.7194 25.3962C11.9827 25.5072 12.2656 25.5644 12.5513 25.5644C12.8371 25.5644 13.12 25.5072 13.3833 25.3962C13.6466 25.2851 13.8849 25.1225 14.0844 24.9179L17.9202 21.0821L21.7559 24.9179C21.9535 25.1255 22.1918 25.2901 22.456 25.4014C22.7201 25.5127 23.0044 25.5683 23.291 25.5647C23.5827 25.5655 23.8717 25.5088 24.1414 25.3978C24.4112 25.2868 24.6564 25.1237 24.863 24.9179C25.0695 24.7128 25.2317 24.4674 25.3394 24.197C25.4472 23.9266 25.4982 23.6369 25.4893 23.3459C25.4865 23.0584 25.4259 22.7744 25.3112 22.5108C25.1966 22.2471 25.0303 22.009 24.822 21.8108L21.0272 18.016L24.863 14.1802C25.0706 13.9826 25.2351 13.7443 25.3464 13.4801C25.4577 13.216 25.5134 12.9317 25.5098 12.6451C25.5115 12.3533 25.4552 12.064 25.3442 11.7941C25.2333 11.5242 25.07 11.2789 24.8636 11.0726C24.6572 10.8662 24.4119 10.7029 24.142 10.5919C23.8721 10.481 23.5828 10.4247 23.291 10.4263C23.0044 10.4228 22.7201 10.4784 22.456 10.5897C22.1918 10.701 21.9535 10.8656 21.7559 11.0732L17.9202 14.9089L14.0435 11.0322C13.8557 10.8314 13.6269 10.6734 13.3726 10.5688C13.1183 10.4643 12.8445 10.4157 12.5697 10.4263C12.1373 10.421 11.7131 10.5451 11.3516 10.7826C10.9902 11.0201 10.708 11.3602 10.5412 11.7593C10.3744 12.1584 10.3308 12.5982 10.4158 13.0223C10.5008 13.4463 10.7105 13.8353 11.0182 14.1393L14.854 18.016L10.9773 21.8927C10.7765 22.0805 10.6185 22.3093 10.5139 22.5636C10.4094 22.8179 10.3607 23.0917 10.3714 23.3664C10.3665 23.6556 10.4215 23.9427 10.5328 24.2097C10.6441 24.4767 10.8094 24.7178 11.0182 24.9179ZM17.9202 36.024C13.4556 36.0012 9.15851 34.3211 5.86248 31.3095C2.56644 28.298 0.506298 24.1696 0.0816835 19.7252C-0.342931 15.2807 0.898217 10.837 3.56439 7.25584C6.23056 3.67466 10.1318 1.2113 14.5113 0.34354C18.8909 -0.524223 23.4366 0.265458 27.2668 2.55942C31.0971 4.85339 33.9389 8.48813 35.2411 12.7587C36.5432 17.0292 36.213 21.6312 34.3143 25.672C32.4156 29.7129 29.0839 32.9046 24.9653 34.6281C22.7356 35.5654 20.3388 36.0403 17.9202 36.024Z" fill="#353D3A"/>
</svg>
