<svg width="34" height="34" viewBox="0 0 34 34" fill="none" xmlns="http://www.w3.org/2000/svg">
<path d="M28.1515 32.3058L19.2698 23.3849C18.3196 23.9725 17.2857 24.4124 16.2034 24.6898C15.0342 24.9899 13.8308 25.1361 12.6238 25.1247C10.9665 25.1525 9.32084 24.8433 7.78663 24.216C6.25242 23.5887 4.86163 22.6564 3.69855 21.4755C2.5065 20.332 1.56301 18.9551 0.926899 17.4307C0.290792 15.9063 -0.0242717 14.2671 0.001458 12.6155C0.001458 9.27015 1.33038 6.06183 3.69589 3.69632C6.0614 1.33081 9.26973 0.00187979 12.6151 0.00187979C14.2689 -0.027375 15.9111 0.285114 17.4386 0.919781C18.9662 1.55445 20.3462 2.49762 21.4924 3.69026C22.6727 4.85356 23.6045 6.24451 24.231 7.77874C24.8576 9.31297 25.1659 10.9585 25.1373 12.6155C25.1486 13.8064 25.0128 14.9941 24.7329 16.1516C24.4686 17.2073 24.0098 18.2044 23.3801 19.0919L32.388 28.1868C32.6639 28.4509 32.8797 28.7714 33.0208 29.1264C33.1619 29.4814 33.225 29.8626 33.2057 30.2441C33.1869 31.0153 32.876 31.7506 32.3358 32.3014C31.7759 32.8534 31.0212 33.1628 30.235 33.1628C29.4487 33.1628 28.694 32.8534 28.1341 32.3014L28.1515 32.3058ZM12.6151 19.1398C13.4761 19.1551 14.3314 18.9968 15.1298 18.6744C15.9283 18.3519 16.6536 17.8719 17.2625 17.263C17.8715 16.6541 18.3515 15.9287 18.6739 15.1302C18.9964 14.3317 19.1547 13.4765 19.1393 12.6155C19.1604 11.7472 19.0059 10.8837 18.6853 10.0765C18.3647 9.26933 17.8844 8.53519 17.2734 7.91801C16.6727 7.29406 15.9487 6.80202 15.1475 6.47328C14.3462 6.14453 13.4852 5.98627 12.6194 6.00856C11.7476 5.99262 10.8815 6.15265 10.073 6.47909C9.26444 6.80553 8.53 7.29168 7.91363 7.90845C7.29726 8.52523 6.81161 9.25995 6.4857 10.0687C6.1598 10.8775 6.00036 11.7437 6.01688 12.6155C5.98961 13.4826 6.14337 14.3458 6.46839 15.1501C6.79342 15.9544 7.28249 16.6822 7.9045 17.2869C8.52504 17.8962 9.26199 18.3742 10.0713 18.6926C10.8806 19.0109 11.7457 19.163 12.6151 19.1398Z" fill="#353D3A"/>
</svg>
