<svg width="36" height="37" viewBox="0 0 36 37" fill="none" xmlns="http://www.w3.org/2000/svg">
<path d="M21.3276 36.0283H14.1391C13.452 36.0256 12.7887 35.776 12.2702 35.3252C11.7518 34.8743 11.4125 34.2522 11.3144 33.5721L10.905 30.4241C10.905 30.3422 10.8519 30.2768 10.7454 30.2235C10.6719 30.1788 10.5894 30.1509 10.5039 30.1417L7.55644 31.4352C7.2407 31.5808 6.89878 31.661 6.55122 31.6708C6.20366 31.6807 5.85769 31.62 5.5342 31.4926C4.87347 31.2486 4.32753 30.7669 4.00318 30.1417L0.367955 23.7596C0.0246987 23.1761 -0.0836052 22.4838 0.0650286 21.8233C0.206004 21.1733 0.571205 20.5937 1.09664 20.1859L3.52015 18.2864C3.55167 18.2462 3.57146 18.198 3.57742 18.1472C3.58755 18.1 3.59441 18.0521 3.59791 18.004C3.59513 17.9638 3.58825 17.924 3.57742 17.8852C3.56924 17.84 3.54954 17.7977 3.52015 17.7624L1.09664 15.9039C0.5703 15.4725 0.206472 14.8748 0.0650286 14.2091C-0.0812775 13.5353 0.0266055 12.8311 0.367955 12.2319L4.00318 5.93176C4.37218 5.34718 4.91672 4.89438 5.55879 4.63817C5.86925 4.50605 6.20419 4.44137 6.54152 4.44843C6.87886 4.45549 7.2109 4.53411 7.51557 4.6791L10.5039 5.93176C10.5477 5.94556 10.5942 5.94905 10.6397 5.94195C10.6851 5.93485 10.7283 5.91736 10.7659 5.89083C10.8491 5.84913 10.9135 5.77746 10.946 5.69025L11.3103 2.46034C11.3426 2.11597 11.4434 1.78148 11.6064 1.47643C11.7695 1.17139 11.9917 0.901889 12.2601 0.683686C12.7829 0.238517 13.4483 -0.00407906 14.135 5.18997e-05H21.3235C22.0102 -0.00407906 22.6754 0.238517 23.1983 0.683686C23.4667 0.901889 23.689 1.17139 23.852 1.47643C24.0151 1.78148 24.1157 2.11597 24.1481 2.46034L24.5123 5.69025C24.5334 5.73712 24.5639 5.77913 24.602 5.81365C24.64 5.84817 24.6847 5.87444 24.7334 5.89083C24.8273 5.93968 24.9306 5.96761 25.0363 5.97271L27.9019 4.6791C28.2176 4.53351 28.5597 4.45336 28.9072 4.44351C29.2548 4.43366 29.6008 4.4943 29.9242 4.62178C30.5763 4.8587 31.1203 5.32416 31.4553 5.93176L35.1722 12.2319C35.512 12.8315 35.6267 13.5326 35.4957 14.2091C35.3567 14.8911 34.9666 15.496 34.4027 15.9039L31.8973 17.7624C31.8689 17.803 31.8559 17.8523 31.8605 17.9016V18.0449C31.857 18.0931 31.8502 18.1409 31.84 18.1882C31.832 18.2144 31.8334 18.2426 31.8438 18.268C31.8543 18.2934 31.8731 18.3144 31.8973 18.3274L34.4027 20.1859C34.9469 20.5975 35.3215 21.1942 35.4558 21.8632C35.59 22.5322 35.4746 23.2272 35.1314 23.817L31.4184 30.2153C31.1041 30.8333 30.5633 31.306 29.9089 31.5348C29.2544 31.7636 28.5369 31.7309 27.906 31.4434L24.8808 30.1499C24.8276 30.1212 24.758 30.1498 24.6761 30.2071C24.6451 30.2284 24.6186 30.2556 24.5982 30.2873C24.5778 30.3189 24.5639 30.3543 24.5574 30.3914L24.1481 33.5803C24.0499 34.2604 23.7107 34.8825 23.1922 35.3334C22.6737 35.7842 22.0105 36.0338 21.3235 36.0365L21.3276 36.0283ZM17.5736 24.1977C19.0172 24.2013 20.4174 23.7039 21.5351 22.7903C22.6529 21.8766 23.4189 20.6035 23.7025 19.188C23.9861 17.7725 23.7698 16.3025 23.0904 15.0288C22.4109 13.755 21.3106 12.7565 19.977 12.2037C18.6435 11.6508 17.1594 11.5779 15.778 11.9973C14.3967 12.4167 13.2037 13.3025 12.4027 14.5035C11.6016 15.7044 11.2422 17.1462 11.3857 18.5826C11.5291 20.0191 12.1666 21.3613 13.1893 22.3801C13.758 22.9654 14.4402 23.4285 15.1941 23.741C15.9479 24.0536 16.7576 24.2089 17.5736 24.1977Z" fill="#353D3A"/>
</svg>
