<svg width="36" height="22" viewBox="0 0 36 22" fill="none" xmlns="http://www.w3.org/2000/svg">
<g clip-path="url(#clip0_10_400)">
<path d="M10.6672 22C7.82904 22 5.10708 20.8411 3.10017 18.7782C1.09326 16.7153 -0.0341797 13.9174 -0.0341797 11C-0.0341797 8.08263 1.09326 5.28474 3.10017 3.22184C5.10708 1.15894 7.82904 0 10.6672 0H25.3372C28.1754 0 30.8973 1.15894 32.9043 3.22184C34.9112 5.28474 36.0387 8.08263 36.0387 11C36.0387 13.9174 34.9112 16.7153 32.9043 18.7782C30.8973 20.8411 28.1754 22 25.3372 22H10.6672ZM25.3372 16.0527C25.9827 16.0504 26.6215 15.9174 27.217 15.6613C27.8125 15.4052 28.3531 15.0311 28.808 14.5602C29.2628 14.0894 29.623 13.5311 29.8679 12.9172C30.1129 12.3033 30.2378 11.6458 30.2355 10.9823C30.2333 10.3187 30.1038 9.66218 29.8547 9.05006C29.6056 8.43793 29.2416 7.88224 28.7835 7.4147C28.3255 6.94716 27.7824 6.57692 27.1851 6.32516C26.5879 6.07339 25.9483 5.94501 25.3027 5.94734C24.66 5.93678 24.0219 6.06218 23.4283 6.31575C22.8346 6.56932 22.2981 6.94565 21.8519 7.42136C21.1612 8.12898 20.6908 9.03177 20.5006 10.0149C20.3105 10.9981 20.4092 12.0172 20.7841 12.9425C21.159 13.8679 21.7932 14.6577 22.606 15.2115C23.4188 15.7653 24.3735 16.0582 25.3487 16.0527H25.3372Z" fill="#353D3A"/>
</g>
<defs>
<clipPath id="clip0_10_400">
<rect width="36" height="22" fill="white"/>
</clipPath>
</defs>
</svg>
