<svg width="34" height="34" viewBox="0 0 34 34" fill="none" xmlns="http://www.w3.org/2000/svg">
<path d="M8.46663 33.9993C7.71979 34.011 6.97832 33.8713 6.28708 33.5887C5.59585 33.306 4.96921 32.8863 4.44501 32.3549C3.90815 31.8315 3.48484 31.2033 3.20158 30.5094C2.91831 29.8156 2.78114 29.0709 2.79849 28.3218V8.41563C2.43185 8.41895 2.06837 8.34776 1.73013 8.20641C1.39188 8.06506 1.08592 7.85651 0.830895 7.5934C0.567541 7.33138 0.358547 7.02 0.215964 6.67713C0.0733819 6.33426 0 5.96663 0 5.59536C0 5.2241 0.0733819 4.8565 0.215964 4.51363C0.358547 4.17076 0.567541 3.85937 0.830895 3.59735C1.08175 3.32687 1.38625 3.11151 1.725 2.96499C2.06375 2.81848 2.42935 2.74401 2.79849 2.74634H11.2451C11.2455 2.38411 11.3214 2.02594 11.4681 1.69466C11.6148 1.36339 11.829 1.06629 12.0971 0.822323C12.3564 0.559186 12.6661 0.350814 13.0076 0.209564C13.3491 0.0683146 13.7157 -0.00292995 14.0853 9.22763e-05H19.9304C20.3001 -0.00292995 20.6666 0.0683146 21.0081 0.209564C21.3497 0.350814 21.6593 0.559186 21.9186 0.822323C22.1867 1.06629 22.4009 1.36339 22.5476 1.69466C22.6943 2.02594 22.7704 2.38411 22.7707 2.74634H31.1638C31.5394 2.74106 31.912 2.81401 32.2579 2.96053C32.6037 3.10705 32.9152 3.32393 33.1725 3.59735C33.5682 3.9934 33.8375 4.49779 33.9462 5.04669C34.0549 5.5956 33.9981 6.16436 33.7831 6.68104C33.5681 7.19772 33.2044 7.63909 32.7381 7.94932C32.2719 8.25954 31.724 8.42467 31.1638 8.42384V28.3218C31.1732 29.0698 31.0325 29.8121 30.7501 30.505C30.4677 31.1978 30.0493 31.8272 29.5195 32.3559C28.9897 32.8847 28.3593 33.3021 27.6653 33.5837C26.9714 33.8652 26.2281 34.0051 25.4792 33.9952L8.46663 33.9993ZM10.9364 23.0102C10.9539 23.6281 11.2069 24.2159 11.6437 24.6537C12.0805 25.0915 12.6682 25.3462 13.2868 25.3659C13.5946 25.3617 13.8986 25.2967 14.1812 25.1746C14.4638 25.0525 14.7194 24.8758 14.9333 24.6547C15.1625 24.4462 15.3456 24.1922 15.471 23.9091C15.5965 23.626 15.6615 23.3198 15.6619 23.0102V13.7683C15.6375 13.1415 15.3772 12.547 14.9331 12.1035C14.489 11.6599 13.8938 11.4 13.2662 11.3757C12.9561 11.3758 12.6496 11.4406 12.366 11.5659C12.0825 11.6912 11.8283 11.8742 11.6197 12.1033C11.3961 12.3195 11.2183 12.5782 11.0967 12.8642C10.9751 13.1502 10.9122 13.4576 10.9117 13.7683L10.9364 23.0102ZM18.2428 23.0102C18.2432 23.3198 18.3081 23.626 18.4335 23.9091C18.559 24.1922 18.7421 24.4462 18.9713 24.6547C19.1852 24.8758 19.4408 25.0525 19.7234 25.1746C20.006 25.2967 20.31 25.3617 20.6178 25.3659C21.2363 25.3462 21.8241 25.0915 22.2609 24.6537C22.6977 24.2159 22.9508 23.6281 22.9683 23.0102V13.7683C22.9678 13.4576 22.9048 13.1502 22.7832 12.8642C22.6616 12.5782 22.4838 12.3195 22.2603 12.1033C22.0517 11.8742 21.7975 11.6912 21.5139 11.5659C21.2304 11.4406 20.9238 11.3758 20.6138 11.3757C19.9862 11.4 19.3909 11.6599 18.9468 12.1035C18.5027 12.547 18.2425 13.1415 18.2181 13.7683L18.2428 23.0102Z" fill="#353D3A"/>
</svg>
