<svg width="28" height="29" viewBox="0 0 28 29" fill="none" xmlns="http://www.w3.org/2000/svg">
<path d="M13.8719 18.5435C13.5653 18.5436 13.2624 18.4772 12.9839 18.349C12.6765 18.2117 12.398 18.0172 12.1632 17.7759L6.2415 11.8895C5.77626 11.428 5.51292 10.8009 5.50922 10.1456C5.51103 9.81782 5.58014 9.49393 5.71218 9.19395C5.84422 8.89397 6.03643 8.62429 6.27691 8.4016C6.49963 8.17502 6.76565 7.9956 7.0592 7.87405C7.35274 7.75249 7.66775 7.6913 7.98545 7.69411C8.30832 7.70579 8.62564 7.78154 8.91896 7.91697C9.21228 8.05239 9.47578 8.24479 9.69408 8.48296L11.4416 10.2517V2.43388C11.4372 2.11109 11.5002 1.79091 11.6262 1.49372C11.7523 1.19653 11.9388 0.928829 12.1739 0.707594C12.5148 0.368706 12.9485 0.138378 13.4202 0.0456773C13.8919 -0.047023 14.3805 0.00205532 14.8244 0.18671C15.2682 0.371365 15.6474 0.683331 15.9142 1.08326C16.181 1.48318 16.3233 1.95315 16.3233 2.43388V10.2482L18.092 8.47941C18.3112 8.24145 18.5754 8.04923 18.8692 7.91384C19.1631 7.77845 19.4809 7.70256 19.8042 7.69056C20.1219 7.68776 20.4369 7.74895 20.7305 7.8705C21.024 7.99206 21.29 8.17148 21.5127 8.39806C21.7544 8.61975 21.9474 8.88926 22.0794 9.18948C22.2114 9.4897 22.2796 9.81407 22.2796 10.142C22.2796 10.47 22.2114 10.7944 22.0794 11.0946C21.9474 11.3948 21.7544 11.6643 21.5127 11.886L15.6158 17.783C15.3772 18.0262 15.0937 18.2209 14.7809 18.356C14.494 18.4804 14.1846 18.5442 13.8719 18.5435ZM4.869 28.7315C4.22775 28.7412 3.59118 28.6209 2.99775 28.3777C2.40433 28.1345 1.86638 27.7735 1.41643 27.3165C0.954198 26.8667 0.589871 26.3263 0.346374 25.7292C0.102877 25.132 -0.0145359 24.4909 0.00143596 23.8462V20.0859C0.0167091 19.4433 0.278718 18.8313 0.733199 18.3768C1.18768 17.9223 1.79971 17.6603 2.44226 17.645C2.76514 17.64 3.08548 17.7026 3.38276 17.8287C3.68005 17.9548 3.94767 18.1417 4.1685 18.3773C4.39509 18.6 4.57455 18.8661 4.6961 19.1596C4.81765 19.4532 4.8788 19.7682 4.876 20.0859V23.8497H22.8111V20.0859C22.8083 19.7682 22.8694 19.4532 22.991 19.1596C23.1125 18.8661 23.292 18.6 23.5186 18.3773C23.8612 18.0423 24.2944 17.815 24.7647 17.7232C25.235 17.6315 25.7219 17.6794 26.1654 17.8611C26.6088 18.0427 26.9893 18.3502 27.2601 18.7455C27.5309 19.1408 27.68 19.6068 27.6892 20.0859V23.8497C27.7029 24.4957 27.5827 25.1376 27.3361 25.7348C27.0895 26.3321 26.722 26.8718 26.2566 27.32C25.8069 27.7773 25.2689 28.1386 24.6754 28.3818C24.0819 28.625 23.4453 28.7452 22.804 28.735L4.869 28.7315Z" fill="#353D3A"/>
</svg>
