<svg width="28" height="31" viewBox="0 0 28 31" fill="none" xmlns="http://www.w3.org/2000/svg">
<path d="M13.9473 15.2329C12.935 15.2618 11.9277 15.082 10.988 14.7048C10.0482 14.3276 9.19616 13.761 8.48484 13.0403C7.76961 12.3218 7.20801 11.4653 6.83435 10.523C6.4607 9.58058 6.28273 8.572 6.3113 7.55865C6.28214 6.55667 6.46018 5.55947 6.83417 4.62944C7.20816 3.69941 7.77011 2.85658 8.48484 2.15374C9.96705 0.769755 11.9194 0 13.9473 0C15.9752 0 17.9275 0.769755 19.4097 2.15374C20.1264 2.8631 20.6893 3.71253 21.0632 4.64904C21.4372 5.58556 21.6141 6.58907 21.5831 7.597C21.6073 8.60636 21.4263 9.61011 21.0511 10.5475C20.6759 11.4848 20.1143 12.3362 19.4004 13.0502C18.6865 13.7641 17.8351 14.3257 16.8977 14.7008C15.9604 15.076 14.9566 15.257 13.9473 15.2329ZM5.29552 30.9992C4.5975 31.0119 3.90415 30.8826 3.25769 30.619C2.61123 30.3554 2.02514 29.963 1.53505 29.4658C1.03308 28.9753 0.637776 28.3864 0.373934 27.7361C0.110092 27.0857 -0.016604 26.3878 0.00174251 25.6862V24.8544C-0.0118922 23.7184 0.303682 22.6027 0.910274 21.6421C1.48714 20.7096 2.33122 19.9723 3.33284 19.5262C4.98299 18.7129 6.72046 18.0905 8.5116 17.6708C10.2953 17.2483 12.1219 17.0334 13.9549 17.0307C17.6362 17.0331 21.2686 17.8734 24.5769 19.4878C25.575 19.9303 26.4185 20.6603 26.9996 21.5846C27.6135 22.563 27.9279 23.6996 27.9042 24.8544V25.6862C27.9228 26.3879 27.7961 27.0858 27.5323 27.7362C27.2684 28.3866 26.873 28.9755 26.3709 29.4658C25.8808 29.963 25.2947 30.3554 24.6482 30.619C24.0018 30.8826 23.3084 31.0119 22.6104 30.9992H5.29552Z" fill="#353D3A"/>
</svg>
