<svg width="36" height="31" viewBox="0 0 36 31" fill="none" xmlns="http://www.w3.org/2000/svg">
<path d="M27.255 13.6076C26.6292 13.5902 26.0338 13.3338 25.5911 12.8911C25.1484 12.4484 24.892 11.8529 24.8746 11.2271C24.8773 10.9217 24.9423 10.62 25.0655 10.3406C25.1887 10.0611 25.3677 9.80974 25.5914 9.6018C25.8054 9.37522 26.0632 9.19451 26.3492 9.07063C26.6352 8.94674 26.9434 8.88227 27.255 8.88114H33.2656C33.5748 8.87985 33.8809 8.94331 34.1641 9.06742C34.4473 9.19154 34.7014 9.37357 34.9101 9.6018C35.1303 9.81162 35.306 10.0637 35.4265 10.343C35.547 10.6222 35.61 10.9229 35.6116 11.2271C35.6129 11.5374 35.5514 11.8447 35.4309 12.1307C35.3103 12.4166 35.1332 12.6751 34.9101 12.8908C34.7012 13.1185 34.4471 13.2999 34.1638 13.4234C33.8806 13.5468 33.5746 13.6096 33.2656 13.6076H27.255ZM13.9114 15.2329C12.8992 15.2618 11.8918 15.082 10.9521 14.7048C10.0123 14.3276 9.16027 13.761 8.44895 13.0403C7.73372 12.3218 7.17222 11.4653 6.79856 10.523C6.42491 9.58058 6.24694 8.572 6.27551 7.55865C6.24634 6.55667 6.42429 5.55947 6.79828 4.62944C7.17227 3.69941 7.73422 2.85658 8.44895 2.15374C9.93117 0.769755 11.8835 0 13.9114 0C15.9393 0 17.8916 0.769755 19.3738 2.15374C20.0905 2.8631 20.6534 3.71253 21.0274 4.64904C21.4013 5.58556 21.5783 6.58907 21.5473 7.597C21.5715 8.60636 21.3905 9.61011 21.0153 10.5475C20.6401 11.4848 20.0785 12.3362 19.3645 13.0502C18.6506 13.7641 17.7992 14.3257 16.8619 14.7008C15.9245 15.076 14.9207 15.257 13.9114 15.2329ZM2.64541 30.9992C2.3012 31.0018 1.95992 30.9352 1.64189 30.8035C1.32386 30.6719 1.03551 30.4777 0.793905 30.2325C0.541598 29.9982 0.340819 29.7139 0.20422 29.3978C0.0676207 29.0817 -0.00184192 28.7407 0.000389964 28.3964V24.8812C-0.012647 23.7458 0.301448 22.6307 0.905085 21.6689C1.48039 20.7366 2.32332 19.9992 3.32391 19.553C4.97576 18.7235 6.72068 18.0942 8.52176 17.6785C10.3018 17.2669 12.1228 17.0585 13.9497 17.0575C15.802 17.0568 17.6479 17.2716 19.4504 17.6977C21.2185 18.1153 22.9358 18.7246 24.5717 19.5146C25.5655 19.9545 26.4022 20.6857 26.9714 21.6115C27.5755 22.5935 27.8842 23.7285 27.8607 24.8812V28.3964C27.863 28.7407 27.7935 29.0817 27.6569 29.3978C27.5203 29.7139 27.3195 29.9982 27.0672 30.2325C26.8253 30.4773 26.5369 30.6713 26.2189 30.803C25.901 30.9346 25.5599 31.0013 25.2157 30.9992H2.64541Z" fill="#353D3A"/>
</svg>
