<svg width="37" height="31" viewBox="0 0 37 31" fill="none" xmlns="http://www.w3.org/2000/svg">
<path d="M29.8272 17.6134C29.5521 17.6181 29.279 17.5653 29.0255 17.4584C28.772 17.3515 28.5437 17.1927 28.3552 16.9924C28.1615 16.8027 28.0081 16.576 27.904 16.3257C27.7999 16.0755 27.7474 15.8067 27.7496 15.5357V13.4198H25.6336C25.223 13.4223 24.821 13.3027 24.4786 13.0761C24.1362 12.8495 23.8689 12.5263 23.7107 12.1474C23.5525 11.7686 23.5105 11.3512 23.5902 10.9484C23.6698 10.5456 23.8673 10.1756 24.1578 9.88546C24.3461 9.68353 24.5749 9.52354 24.8291 9.41589C25.0834 9.30823 25.3575 9.25533 25.6336 9.26063H27.7496V7.17916C27.7481 6.9059 27.8007 6.63504 27.9046 6.38228C28.0084 6.12952 28.1615 5.89989 28.3547 5.70666C28.5479 5.51343 28.7775 5.36045 29.0303 5.25658C29.2831 5.15271 29.5539 5.10001 29.8272 5.10153C30.0981 5.10005 30.3667 5.15288 30.6169 5.25691C30.867 5.36093 31.0938 5.51405 31.2838 5.7072C31.4847 5.89554 31.644 6.12375 31.7516 6.37722C31.8592 6.63069 31.9127 6.90383 31.9086 7.17916V9.26063H33.9863C34.2623 9.25604 34.5362 9.30928 34.7903 9.41689C35.0445 9.5245 35.2733 9.6841 35.4621 9.88546C35.7525 10.1756 35.9502 10.5456 36.0298 10.9484C36.1094 11.3512 36.0674 11.7686 35.9092 12.1474C35.751 12.5263 35.4837 12.8495 35.1413 13.0761C34.7989 13.3027 34.3969 13.4223 33.9863 13.4198H31.9086V15.5357C31.8959 16.0834 31.6724 16.6051 31.2847 16.9921C30.897 17.3791 30.3749 17.6017 29.8272 17.6134ZM13.8731 15.2329C12.8649 15.2527 11.8631 15.0687 10.9277 14.692C9.99232 14.3153 9.14265 13.7535 8.42961 13.0405C7.71657 12.3275 7.15483 11.4778 6.7781 10.5424C6.40137 9.607 6.21737 8.6052 6.23717 7.597C6.20678 6.58745 6.38593 5.58256 6.76331 4.6457C7.1407 3.70884 7.70811 2.86034 8.4298 2.15374C9.91202 0.769755 11.8643 0 13.8922 0C15.9201 0 17.8724 0.769755 19.3546 2.15374C20.0783 2.85902 20.6474 3.70718 21.0255 4.64429C21.4037 5.5814 21.5826 6.58696 21.5511 7.597C21.57 8.60754 21.3844 9.61147 21.0054 10.5484C20.6264 11.4854 20.0619 12.3361 19.3458 13.0493C18.6296 13.7626 17.7767 14.3237 16.8382 14.6989C15.8997 15.0742 14.895 15.2558 13.8845 15.2329H13.8731ZM2.60707 30.9992C1.91818 30.9892 1.26035 30.7109 0.773537 30.2234C0.286725 29.7358 0.00933881 29.0776 0.000423865 28.3887V24.8736C-0.0132108 23.7376 0.302364 22.6219 0.908956 21.6613C1.47464 20.7352 2.30334 19.9985 3.28941 19.5453C4.94126 18.7158 6.68628 18.0865 8.48735 17.6708C10.2661 17.2595 12.0857 17.0512 13.9114 17.0499C15.7573 17.0482 17.5971 17.2631 19.393 17.69C21.1768 18.1173 22.9121 18.7262 24.5718 19.507C25.5637 19.9434 26.3965 20.6757 26.9561 21.6038C27.547 22.5906 27.8485 23.7236 27.8262 24.8736V28.3887C27.8285 28.733 27.7591 29.0741 27.6225 29.3902C27.4859 29.7063 27.285 29.9905 27.0327 30.2248C26.7899 30.4694 26.5007 30.6632 26.1822 30.7948C25.8637 30.9264 25.5221 30.9933 25.1775 30.9915L2.60707 30.9992Z" fill="#353D3A"/>
</svg>
